<svg xmlns="http://www.w3.org/2000/svg" version="1.1" xmlns:xlink="http://www.w3.org/1999/xlink" width="1000" height="1000"><style>
    #light-icon {
      display: inline;
    }
    #dark-icon {
      display: none;
    }

    @media (prefers-color-scheme: dark) {
      #light-icon {
        display: none;
      }
      #dark-icon {
        display: inline;
      }
    }
  </style><g id="light-icon"><svg xmlns="http://www.w3.org/2000/svg" version="1.1" xmlns:xlink="http://www.w3.org/1999/xlink" width="1000" height="1000"><g clip-path="url(#SvgjsClipPath1112)"><rect width="1000" height="1000" fill="#ffffff"></rect><g transform="matrix(33.333333333333336,0,0,33.333333333333336,100,100)"><svg xmlns="http://www.w3.org/2000/svg" version="1.1" xmlns:xlink="http://www.w3.org/1999/xlink" width="24" height="24"><svg width="24" height="24" viewBox="0 0 24 24" fill="none" xmlns="http://www.w3.org/2000/svg">
<g transform="translate(0.7296,0)">
<path d="M1.59189 19.1469L9.31921 23.4583C10.6237 24.1806 11.9245 24.1806 13.2216 23.4583L20.9489 19.1469C21.4795 18.8448 21.8775 18.5021 22.1428 18.1188C22.4081 17.7282 22.5408 17.146 22.5408 16.3722V7.53938C22.5408 6.79503 22.4081 6.23491 22.1428 5.85905C21.8848 5.48319 21.509 5.15523 21.0152 4.87517L13.3321 0.57485C12.6541 0.191617 11.965 0 11.2649 0C10.5721 0 9.883 0.191617 9.19761 0.57485L1.53662 4.87517C1.03547 5.15523 0.652234 5.48319 0.386918 5.85905C0.128973 6.23491 0 6.79503 0 7.53938V16.3722C0 17.146 0.132658 17.7282 0.397973 18.1188C0.663289 18.5021 1.06126 18.8448 1.59189 19.1469Z" fill="url(#paint0_linear_50_2710)"></path>
</g>
<defs>
<linearGradient id="paint0_linear_50_2710" x1="0" y1="24" x2="23.9529" y2="1.50351" gradientUnits="userSpaceOnUse">
<stop stop-color="#753A88"></stop>
<stop offset="1" stop-color="#CC2B5E"></stop>
</linearGradient>
<clipPath id="SvgjsClipPath1112"><rect width="1000" height="1000" x="0" y="0" rx="0" ry="0"></rect></clipPath></defs>
</svg></svg></g></g></svg></g><g id="dark-icon"><svg xmlns="http://www.w3.org/2000/svg" version="1.1" xmlns:xlink="http://www.w3.org/1999/xlink" width="1000" height="1000"><g clip-path="url(#SvgjsClipPath1113)"><rect width="1000" height="1000" fill="#ffffff"></rect><g transform="matrix(29.166666666666668,0,0,29.166666666666668,150,150)"><svg xmlns="http://www.w3.org/2000/svg" version="1.1" xmlns:xlink="http://www.w3.org/1999/xlink" width="24" height="24"><svg width="24" height="24" viewBox="0 0 24 24" fill="none" xmlns="http://www.w3.org/2000/svg">
<g transform="translate(0.7296,0)">
<path d="M1.59189 19.1469L9.31921 23.4583C10.6237 24.1806 11.9245 24.1806 13.2216 23.4583L20.9489 19.1469C21.4795 18.8448 21.8775 18.5021 22.1428 18.1188C22.4081 17.7282 22.5408 17.146 22.5408 16.3722V7.53938C22.5408 6.79503 22.4081 6.23491 22.1428 5.85905C21.8848 5.48319 21.509 5.15523 21.0152 4.87517L13.3321 0.57485C12.6541 0.191617 11.965 0 11.2649 0C10.5721 0 9.883 0.191617 9.19761 0.57485L1.53662 4.87517C1.03547 5.15523 0.652234 5.48319 0.386918 5.85905C0.128973 6.23491 0 6.79503 0 7.53938V16.3722C0 17.146 0.132658 17.7282 0.397973 18.1188C0.663289 18.5021 1.06126 18.8448 1.59189 19.1469Z" fill="url(#paint0_linear_50_2710)"></path>
</g>
<defs>
<linearGradient id="paint0_linear_50_2710" x1="0" y1="24" x2="23.9529" y2="1.50351" gradientUnits="userSpaceOnUse">
<stop stop-color="#753A88"></stop>
<stop offset="1" stop-color="#CC2B5E"></stop>
</linearGradient>
<clipPath id="SvgjsClipPath1113"><rect width="1000" height="1000" x="0" y="0" rx="350" ry="350"></rect></clipPath></defs>
</svg></svg></g></g></svg></g></svg>